<?xml version="1.0" encoding="UTF-8" standalone="no"?>
<svg
   xmlns:dc="http://purl.org/dc/elements/1.1/"
   xmlns:cc="http://creativecommons.org/ns#"
   xmlns:rdf="http://www.w3.org/1999/02/22-rdf-syntax-ns#"
   xmlns:svg="http://www.w3.org/2000/svg"
   xmlns="http://www.w3.org/2000/svg"
   xmlns:sodipodi="http://sodipodi.sourceforge.net/DTD/sodipodi-0.dtd"
   xmlns:inkscape="http://www.inkscape.org/namespaces/inkscape"
   inkscape:version="1.0 (4035a4f, 2020-05-01)"
   sodipodi:docname="imca-cat-logo-gs-trans-bg.svg"
   version="1.0"
   width="48"
   height="48"
   id="svg2">
  <defs
     id="defs29" />
  <sodipodi:namedview
     inkscape:pagecheckerboard="true"
     inkscape:current-layer="svg2"
     inkscape:window-maximized="0"
     inkscape:window-y="81"
     inkscape:window-x="2254"
     inkscape:cy="24"
     inkscape:cx="24"
     inkscape:zoom="13.86"
     showgrid="false"
     id="namedview27"
     inkscape:window-height="947"
     inkscape:window-width="1613"
     inkscape:pageshadow="2"
     inkscape:pageopacity="0"
     guidetolerance="10"
     gridtolerance="10"
     objecttolerance="10"
     borderopacity="1"
     bordercolor="#666666"
     pagecolor="#ffffff" />
  <metadata
     id="metadata7">
    <rdf:RDF>
      <cc:Work
         rdf:about="">
        <dc:format>image/svg+xml</dc:format>
        <dc:type
           rdf:resource="http://purl.org/dc/dcmitype/StillImage" />
        <dc:title></dc:title>
      </cc:Work>
    </rdf:RDF>
  </metadata>
  <g
     id="layer2">
    <path
       style="fill:none"
       fill="#fff"
       stroke-width="1.4258"
       stroke="#000"
       transform="matrix(1.0626 0 0 1.054 -15.754 -1.1841)"
       fill-rule="evenodd"
       d="m59.286 23.893a21.875 22.054 0 1 1 -43.75 0 21.875 22.054 0 1 1 43.75 0z"
       id="path4372" />
    <rect
       x="-10.269"
       y="-37.45"
       width="3.4724"
       height="1.5152"
       transform="rotate(176.99)"
       rx="0"
       id="rect5381" />
    <rect
       x="-33.165"
       y="10.97"
       width="3.4724"
       height="1.5152"
       transform="matrix(-.11442 -.99343 .99343 -.11442 0 0)"
       rx="0"
       id="rect5379" />
    <rect
       x="-16.13"
       y="-27.368"
       width="3.4724"
       height="1.5152"
       transform="rotate(167.71)"
       rx="0"
       id="rect5377" />
    <rect
       x="-22.985"
       y="33.253"
       width="3.4724"
       height="1.5152"
       transform="rotate(265.1)"
       rx="0"
       id="rect5375" />
    <rect
       x="22.142"
       y="31.661"
       width="3.4724"
       height="1.5152"
       transform="rotate(-40.274)"
       rx="0"
       id="rect5373" />
    <rect
       x="29.082"
       y="5.3701"
       width="3.4724"
       height="1.5152"
       transform="rotate(10.115)"
       rx="0"
       id="rect5371" />
    <path
       style="fill:#000000"
       fill="#ff0017"
       stroke-width="1.509"
       transform="matrix(1.4806 0 0 1.4806 4.1099 -9.202)"
       d="m16.289 13.497a3.0936 3.062 0 1 1 -6.187 0 3.0936 3.062 0 1 1 6.187 0z"
       id="path5345" />
    <path
       style="fill:#000000"
       fill="#ff0017"
       stroke-width="1.509"
       transform="matrix(1.4806 0 0 1.4806 16.8 3.8668)"
       d="m16.289 13.497a3.0936 3.062 0 1 1 -6.187 0 3.0936 3.062 0 1 1 6.187 0z"
       id="path5347" />
    <path
       stroke-width="1.509"
       transform="matrix(1.4806 0 0 1.4806 15.348 -7.4343)"
       d="m16.289 13.497a3.0936 3.062 0 1 1 -6.187 0 3.0936 3.062 0 1 1 6.187 0z"
       id="path5349" />
    <path
       stroke-width="1.509"
       transform="matrix(1.4806 0 0 1.4806 -5.1078 4.1825)"
       d="m16.289 13.497a3.0936 3.062 0 1 1 -6.187 0 3.0936 3.062 0 1 1 6.187 0z"
       id="path5351" />
    <path
       stroke-width="1.509"
       transform="matrix(1.4806 0 0 1.4806 -3.4031 15.673)"
       d="m16.289 13.497a3.0936 3.062 0 1 1 -6.187 0 3.0936 3.062 0 1 1 6.187 0z"
       id="path5353" />
    <path
       stroke-width="1.509"
       transform="matrix(-.90543 -1.1715 1.1715 -.90543 1.1315 64.527)"
       d="m16.289 13.497a3.0936 3.062 0 1 1 -6.187 0"
       id="path5355" />
    <path
       style="fill:#000000"
       fill="#0060f0"
       stroke-width="1.509"
       transform="matrix(1.4806 0 0 1.4806 5.8145 1.7203)"
       d="m16.289 13.497a3.0936 3.062 0 1 1 -6.187 0 3.0936 3.062 0 1 1 6.187 0z"
       id="path5357" />
  </g>
</svg>
