<?xml version="1.0" encoding="UTF-8" standalone="no"?>
<svg
   xmlns:dc="http://purl.org/dc/elements/1.1/"
   xmlns:cc="http://creativecommons.org/ns#"
   xmlns:rdf="http://www.w3.org/1999/02/22-rdf-syntax-ns#"
   xmlns:svg="http://www.w3.org/2000/svg"
   xmlns="http://www.w3.org/2000/svg"
   xmlns:sodipodi="http://sodipodi.sourceforge.net/DTD/sodipodi-0.dtd"
   xmlns:inkscape="http://www.inkscape.org/namespaces/inkscape"
   id="svg2"
   height="48"
   width="48"
   version="1.0"
   sodipodi:docname="imca-cat-logo-xxx-gs-trans-bg.svg"
   inkscape:version="1.0 (4035a4f, 2020-05-01)">
  <defs
     id="defs29" />
  <sodipodi:namedview
     inkscape:document-rotation="0"
     pagecolor="#ffffff"
     bordercolor="#666666"
     borderopacity="1"
     objecttolerance="10"
     gridtolerance="10"
     guidetolerance="10"
     inkscape:pageopacity="0"
     inkscape:pageshadow="2"
     inkscape:window-width="1613"
     inkscape:window-height="947"
     id="namedview27"
     showgrid="false"
     inkscape:zoom="13.86"
     inkscape:cx="24"
     inkscape:cy="24"
     inkscape:window-x="2293"
     inkscape:window-y="233"
     inkscape:window-maximized="0"
     inkscape:current-layer="svg2"
     inkscape:pagecheckerboard="true" />
  <metadata
     id="metadata7">
    <rdf:RDF>
      <cc:Work
         rdf:about="">
        <dc:format>image/svg+xml</dc:format>
        <dc:type
           rdf:resource="http://purl.org/dc/dcmitype/StillImage" />
        <dc:title />
      </cc:Work>
    </rdf:RDF>
  </metadata>
  <g
     id="layer2">
    <path
       id="path4372"
       d="m59.286 23.893a21.875 22.054 0 1 1 -43.75 0 21.875 22.054 0 1 1 43.75 0z"
       fill-rule="evenodd"
       transform="matrix(1.0626 0 0 1.054 -15.754 -1.1841)"
       stroke="#000"
       stroke-width="1.4258"
       fill="#fff"
       style="fill:none;stroke:#dfdfdf;stroke-opacity:1" />
    <rect
       style="stroke:#dfdfdf;stroke-opacity:1;fill:#dfdfdf;fill-opacity:1"
       id="rect5381"
       rx="0"
       transform="rotate(176.99)"
       height="1.5152"
       width="3.4724"
       y="-37.45"
       x="-10.269" />
    <rect
       style="stroke:#dfdfdf;stroke-opacity:1;fill:#dfdfdf;fill-opacity:1"
       id="rect5379"
       rx="0"
       transform="matrix(-.11442 -.99343 .99343 -.11442 0 0)"
       height="1.5152"
       width="3.4724"
       y="10.97"
       x="-33.165" />
    <rect
       style="stroke:#dfdfdf;stroke-opacity:1;fill:#dfdfdf;fill-opacity:1"
       id="rect5377"
       rx="0"
       transform="rotate(167.71)"
       height="1.5152"
       width="3.4724"
       y="-27.368"
       x="-16.13" />
    <rect
       style="stroke:#dfdfdf;stroke-opacity:1;fill:#dfdfdf;fill-opacity:1"
       id="rect5375"
       rx="0"
       transform="rotate(265.1)"
       height="1.5152"
       width="3.4724"
       y="33.253"
       x="-22.985" />
    <rect
       style="stroke:#dfdfdf;stroke-opacity:1;fill:#dfdfdf;fill-opacity:1"
       id="rect5373"
       rx="0"
       transform="rotate(-40.274)"
       height="1.5152"
       width="3.4724"
       y="31.661"
       x="22.142" />
    <rect
       style="stroke:#dfdfdf;stroke-opacity:1;fill:#dfdfdf;fill-opacity:1"
       id="rect5371"
       rx="0"
       transform="rotate(10.115)"
       height="1.5152"
       width="3.4724"
       y="5.3701"
       x="29.082" />
    <path
       id="path5345"
       d="m16.289 13.497a3.0936 3.062 0 1 1 -6.187 0 3.0936 3.062 0 1 1 6.187 0z"
       transform="matrix(1.4806 0 0 1.4806 4.1099 -9.202)"
       stroke-width="1.509"
       fill="#ff0017"
       style="fill:#dfdfdf;stroke:#dfdfdf;stroke-opacity:1;fill-opacity:1" />
    <path
       id="path5347"
       d="m16.289 13.497a3.0936 3.062 0 1 1 -6.187 0 3.0936 3.062 0 1 1 6.187 0z"
       transform="matrix(1.4806 0 0 1.4806 16.8 3.8668)"
       stroke-width="1.509"
       fill="#ff0017"
       style="fill:#dfdfdf;stroke:#dfdfdf;stroke-opacity:1;fill-opacity:1" />
    <path
       style="stroke:#dfdfdf;stroke-opacity:1;fill:#dfdfdf;fill-opacity:1"
       id="path5349"
       d="m16.289 13.497a3.0936 3.062 0 1 1 -6.187 0 3.0936 3.062 0 1 1 6.187 0z"
       transform="matrix(1.4806 0 0 1.4806 15.348 -7.4343)"
       stroke-width="1.509" />
    <path
       style="stroke:#dfdfdf;stroke-opacity:1;fill:#dfdfdf;fill-opacity:1"
       id="path5351"
       d="m16.289 13.497a3.0936 3.062 0 1 1 -6.187 0 3.0936 3.062 0 1 1 6.187 0z"
       transform="matrix(1.4806 0 0 1.4806 -5.1078 4.1825)"
       stroke-width="1.509" />
    <path
       style="stroke:#dfdfdf;stroke-opacity:1;fill:#dfdfdf;fill-opacity:1"
       id="path5353"
       d="m16.289 13.497a3.0936 3.062 0 1 1 -6.187 0 3.0936 3.062 0 1 1 6.187 0z"
       transform="matrix(1.4806 0 0 1.4806 -3.4031 15.673)"
       stroke-width="1.509" />
    <path
       style="stroke:#dfdfdf;stroke-opacity:1;fill:#dfdfdf;fill-opacity:1"
       id="path5355"
       d="m16.289 13.497a3.0936 3.062 0 1 1 -6.187 0"
       transform="matrix(-.90543 -1.1715 1.1715 -.90543 1.1315 64.527)"
       stroke-width="1.509" />
    <path
       id="path5357"
       d="m16.289 13.497a3.0936 3.062 0 1 1 -6.187 0 3.0936 3.062 0 1 1 6.187 0z"
       transform="matrix(1.4806 0 0 1.4806 5.8145 1.7203)"
       stroke-width="1.509"
       fill="#0060f0"
       style="fill:#dfdfdf;stroke:#dfdfdf;stroke-opacity:1;fill-opacity:1" />
  </g>
</svg>
